# xmcd
#
# Track frame offsets:
#	150
#	15088
#	25356
#	34506
#	45052
#	55470
#	64546
#	76551
#	88768
#	101021
#
# Disc length: 1485
#
# Revision: 1
# Processed by: cddbd v1.5.1PL0 Copyright (c) Steve Scherf et al.
# Submitted via: CDex 1.50
# Normalized: r0:TDELIM( - )
#
DISCID=6205cb0a
DTITLE=Various Artist - Honky Tonk Country
DYEAR=2000
DGENRE=Country
TTITLE0=Jeannie C. Riley - Harper Valley P.T.A.
TTITLE1=Jan Howard - I Wish I Could Fall In Love Again
TTITLE2=Jim Reeves - Billy Bayou
TTITLE3=George Jones - The God Old Bible
TTITLE4=Loretta Lynn - Somebody Somewhere
TTITLE5=Johnny Cash - Big River
TTITLE6=George Jones - Take The World But Give Me Jesus
TTITLE7=Don Williams - On Her Way To Being A Woman
TTITLE8=Billie Jo Spears - You Never Can Tell
TTITLE9=Willie Nelson - Blame It On The Times
EXTD=YEAR: 2000
EXTT0=
EXTT1=
EXTT2=
EXTT3=
EXTT4=
EXTT5=
EXTT6=
EXTT7=
EXTT8=
EXTT9=
PLAYORDER=
